<svg xmlns="http://www.w3.org/2000/svg" viewBox="129.6 12.912912912912914 102.60000000000001 52.85285285285285" style="max-height: 500px" width="102.60000000000001" height="52.85285285285285"><defs><linearGradient id="A" x1="0%" y1="0%" x2="100%" y2="100%"><stop offset="0%" stop-color="#4f46e5"/><stop offset="100%" stop-color="#06b6d4"/></linearGradient><linearGradient id="B" x1="0%" y1="0%" x2="100%" y2="0%"><stop offset="0%" stop-color="#1e293b"/><stop offset="100%" stop-color="#475569"/></linearGradient></defs><g transform="translate(10 15)"><g fill="url(#A)"><circle cx="15" cy="35" r="6" opacity=".9"/><circle cx="45" cy="20" r="5" opacity=".8"/><circle cx="45" cy="50" r="5" opacity=".8"/><circle cx="75" cy="35" r="6" opacity=".9"/></g><g stroke="url(#A)" stroke-width="2"><path opacity=".6" d="M 21.00001 35.00001 L 39 22"/><path opacity=".6" d="M 21.00001 35.00001 L 39 48"/><path opacity=".6" d="M 51.00001 20.00001 L 69 33"/><path opacity=".6" d="M 51.00001 50.00001 L 69 37"/></g><g fill="#06b6d4"><circle cx="30" cy="27" r="2" opacity=".7"/><circle cx="30" cy="43" r="2" opacity=".7"/><circle cx="60" cy="27" r="2" opacity=".7"/><circle cx="60" cy="43" r="2" opacity=".7"/></g></g><g transform="translate(75 25)" fill="url(#A)"><path d="M5 15 Q5 5 15 5 L35 5 Q45 5 45 15 L45 25 Q45 35 35 35 L20 35 L10 42 L15 35 Q5 35 5 25 Z" opacity=".3" stroke="url(#A)" stroke-width="1.5"/><circle cx="20" cy="20" r="2"/><circle cx="30" cy="20" r="2"/><circle cx="40" cy="20" r="2"/></g><text x="130" y="40" font-family="Arial, sans-serif" font-size="32" font-weight="bold" fill="url(#B)">     AIlyz   </text><text x="130" y="58" font-family="Arial, sans-serif" font-size="11" fill="#64748b" opacity=".8">     AI Customer Service   </text><g stroke="#06b6d4" opacity=".3" fill="none"><path d="M120 30h5v-5h5m-10 20h5v5h5"/><g fill="#06b6d4"><circle cx="122" cy="30" r="1.5" opacity=".5"/><circle cx="122" cy="45" r="1.5" opacity=".5"/></g></g></svg>